<svg id="Icons" height="512" viewBox="0 0 60 60" width="512" xmlns="http://www.w3.org/2000/svg"><path d="m1 18v-14a3 3 0 0 1 3-3h14.19a5 5 0 0 1 3.2 1.159l3.218 2.682a5 5 0 0 0 3.202 1.159h28.19a3 3 0 0 1 3 3v9z" fill="#e58b0a"/><path d="m6 16v-3a3 3 0 0 1 3-3h42a3 3 0 0 1 3 3v3z" fill="#fff"/><rect fill="#ffb90b" height="38" rx="3" width="58" x="1" y="15"/><path d="m20.265 48a2 2 0 0 0 -1.807 1.143l-3.343 7.046a4.769 4.769 0 0 1 -4.34 2.811 4.793 4.793 0 0 1 -4.77-5.007c.55-12.644 3.159-21.031 5.3-25.371a8.263 8.263 0 0 1 7.411-4.622h22.568a8.263 8.263 0 0 1 7.408 4.622c2.144 4.34 4.753 12.727 5.3 25.371a4.793 4.793 0 0 1 -4.767 5.007 4.769 4.769 0 0 1 -4.34-2.811l-3.343-7.046a2 2 0 0 0 -1.807-1.143z" fill="#394263"/><path d="m22 33h-3v-3a1 1 0 0 0 -2 0v3h-3a1 1 0 0 0 0 2h3v3a1 1 0 0 0 2 0v-3h3a1 1 0 0 0 0-2z" fill="#232944"/><path d="m42 39a1 1 0 0 1 -1-1v-1a1 1 0 0 1 2 0v1a1 1 0 0 1 -1 1z" fill="#e23d4a"/><path d="m42 32a1 1 0 0 1 -1-1v-1a1 1 0 0 1 2 0v1a1 1 0 0 1 -1 1z" fill="#ffb90b"/><path d="m46 35h-1a1 1 0 0 1 0-2h1a1 1 0 0 1 0 2z" fill="#5488e2"/><path d="m39 35h-1a1 1 0 0 1 0-2h1a1 1 0 0 1 0 2z" fill="#1ead6f"/><g fill="#232944"><path d="m27 45h-2a1 1 0 0 1 0-2h2a1 1 0 0 1 0 2z"/><path d="m35 45h-2a1 1 0 0 1 0-2h2a1 1 0 0 1 0 2z"/></g></svg>